<?xml version="1.0" standalone="no"?>
<!DOCTYPE svg PUBLIC "-//W3C//DTD SVG 20010904//EN"
 "http://www.w3.org/TR/2001/REC-SVG-20010904/DTD/svg10.dtd">
<svg version="1.0" xmlns="http://www.w3.org/2000/svg"
 width="360.000000pt" height="360.000000pt" viewBox="0 0 360.000000 360.000000"
 preserveAspectRatio="xMidYMid meet">

<g transform="translate(0.000000,360.000000) scale(0.100000,-0.100000)"
fill="#FFFFFF" stroke="none">
<path d="M1362 2069 c-238 -501 -436 -917 -439 -925 -4 -11 12 -14 89 -14 l95
0 111 233 c72 149 116 231 124 228 7 -2 21 -6 30 -8 14 -4 25 10 48 62 16 37
30 70 30 74 0 4 -11 13 -24 19 l-25 11 196 410 c108 226 199 411 203 411 5 0
379 -772 398 -822 5 -11 -108 -62 -189 -84 -43 -12 -104 -18 -189 -19 l-124
-1 -32 -71 c-40 -87 -45 -83 121 -90 144 -6 262 15 401 70 49 20 89 35 90 34
0 -1 50 -104 109 -229 l108 -228 95 0 c77 0 93 3 89 14 -17 44 -873 1836 -877
1836 -3 0 -200 -410 -438 -911z"/>
<path d="M1507 1738 l-287 -603 87 -3 c47 -2 91 -1 97 1 6 3 97 185 201 406
105 220 192 401 195 401 3 0 32 -56 64 -125 49 -104 62 -125 81 -125 27 0 127
29 139 40 9 9 -271 610 -284 610 -4 0 -135 -271 -293 -602z"/>
<path d="M2108 1486 c-38 -11 -68 -26 -68 -32 0 -6 34 -81 75 -167 l75 -157
95 0 c94 0 94 0 86 23 -36 91 -173 357 -183 356 -7 -1 -43 -11 -80 -23z"/>
</g>
</svg>
